<svg width="22" height="22" viewBox="0 0 22 22" fill="none" xmlns="http://www.w3.org/2000/svg">
<path d="M11 16.5H3.66665C3.18042 16.5 2.7141 16.3068 2.37028 15.963C2.02647 15.6192 1.83331 15.1529 1.83331 14.6667V7.33333C1.83331 6.8471 2.02647 6.38079 2.37028 6.03697C2.7141 5.69315 3.18042 5.5 3.66665 5.5H18.3333C18.8195 5.5 19.2859 5.69315 19.6297 6.03697C19.9735 6.38079 20.1666 6.8471 20.1666 7.33333V11.9167" stroke="black" stroke-width="1.5" stroke-linecap="round" stroke-linejoin="round"/>
<path d="M14.6667 17.4167L17.4167 20.1667L20.1667 17.4167" stroke="black" stroke-width="1.5" stroke-linecap="round" stroke-linejoin="round"/>
<path d="M16.5 11H16.51" stroke="black" stroke-width="1.5" stroke-linecap="round" stroke-linejoin="round"/>
<path d="M17.4167 14.6667V20.1667" stroke="black" stroke-width="1.5" stroke-linecap="round" stroke-linejoin="round"/>
<path d="M5.5 11H5.51" stroke="black" stroke-width="1.5" stroke-linecap="round" stroke-linejoin="round"/>
<path d="M11 12.8333C12.0125 12.8333 12.8334 12.0125 12.8334 11C12.8334 9.98747 12.0125 9.16666 11 9.16666C9.9875 9.16666 9.16669 9.98747 9.16669 11C9.16669 12.0125 9.9875 12.8333 11 12.8333Z" stroke="black" stroke-width="1.5" stroke-linecap="round" stroke-linejoin="round"/>
</svg>
