<svg width="22" height="22" viewBox="0 0 22 22" fill="none" xmlns="http://www.w3.org/2000/svg">
<path d="M9.62496 20.1667H5.49996C5.01373 20.1667 4.54741 19.9735 4.2036 19.6297C3.85978 19.2859 3.66663 18.8195 3.66663 18.3333V3.66665C3.66663 3.18042 3.85978 2.71411 4.2036 2.37029C4.54741 2.02647 5.01373 1.83332 5.49996 1.83332H12.8333C13.1238 1.83261 13.4115 1.88943 13.6799 2.0005C13.9483 2.11158 14.1921 2.27471 14.3971 2.48049L17.6861 5.76949C17.8919 5.97452 18.055 6.21827 18.1661 6.48668C18.2772 6.75509 18.334 7.04284 18.3333 7.33332V12.8333" stroke="black" stroke-width="1.5" stroke-linecap="round" stroke-linejoin="round"/>
<path d="M12.8334 1.83334V6.41668C12.8334 6.65979 12.93 6.89295 13.1019 7.06486C13.2738 7.23677 13.5069 7.33334 13.75 7.33334H18.3334" stroke="black" stroke-width="1.5" stroke-linecap="round" stroke-linejoin="round"/>
<path d="M12.8334 18.3333L14.6667 20.1667L18.3334 16.5" stroke="black" stroke-width="1.5" stroke-linecap="round" stroke-linejoin="round"/>
</svg>
