<svg width="22" height="22" viewBox="0 0 22 22" fill="none" xmlns="http://www.w3.org/2000/svg">
<path d="M17.8108 11.8571C18.138 10.9707 18.3333 10.065 18.3333 9.16668C18.3333 7.22176 17.5607 5.35649 16.1854 3.98123C14.8101 2.60596 12.9449 1.83334 11 1.83334C9.05504 1.83334 7.18978 2.60596 5.81451 3.98123C4.43924 5.35649 3.66663 7.22176 3.66663 9.16668C3.66663 13.7436 8.74404 18.5103 10.449 19.9824C10.6079 20.1019 10.8012 20.1664 11 20.1664C11.1987 20.1664 11.392 20.1019 11.5509 19.9824C11.803 19.7642 12.0515 19.5417 12.2961 19.3151" stroke="black" stroke-width="1.5" stroke-linecap="round" stroke-linejoin="round"/>
<path d="M11 11.9167C12.5188 11.9167 13.75 10.6854 13.75 9.16666C13.75 7.64787 12.5188 6.41666 11 6.41666C9.48122 6.41666 8.25 7.64787 8.25 9.16666C8.25 10.6854 9.48122 11.9167 11 11.9167Z" stroke="black" stroke-width="1.5" stroke-linecap="round" stroke-linejoin="round"/>
<path d="M14.6666 16.5L16.5 18.3333L20.1666 14.6667" stroke="black" stroke-width="1.5" stroke-linecap="round" stroke-linejoin="round"/>
</svg>
