<svg width="22" height="22" viewBox="0 0 22 22" fill="none" xmlns="http://www.w3.org/2000/svg">
<path d="M11 12.8333C12.0125 12.8333 12.8333 12.0125 12.8333 11C12.8333 9.98748 12.0125 9.16666 11 9.16666C9.98744 9.16666 9.16663 9.98748 9.16663 11C9.16663 12.0125 9.98744 12.8333 11 12.8333Z" fill="#0D0D0D"/>
<path d="M5.49996 12.8333C6.51248 12.8333 7.33329 12.0125 7.33329 11C7.33329 9.98748 6.51248 9.16666 5.49996 9.16666C4.48744 9.16666 3.66663 9.98748 3.66663 11C3.66663 12.0125 4.48744 12.8333 5.49996 12.8333Z" fill="#0D0D0D"/>
<path d="M16.5 12.8333C17.5125 12.8333 18.3333 12.0125 18.3333 11C18.3333 9.98748 17.5125 9.16666 16.5 9.16666C15.4874 9.16666 14.6666 9.98748 14.6666 11C14.6666 12.0125 15.4874 12.8333 16.5 12.8333Z" fill="#0D0D0D"/>
</svg>
