<svg width="13" height="14" viewBox="0 0 13 14" fill="none" xmlns="http://www.w3.org/2000/svg">
<g clip-path="url(#clip0_1_570)">
<path d="M8.09068 12.4024C7.8587 12.898 7.70535 13.4359 7.64661 14L12.5558 12.9944C12.7878 12.4989 12.941 11.9609 12.9999 11.3969L8.09068 12.4024Z" fill="#231F20"/>
<path d="M12.5557 9.98193C12.7877 9.4864 12.9411 8.94841 12.9998 8.38435L9.1757 9.16804V7.66151L12.5556 6.96941C12.7876 6.47388 12.941 5.93589 12.9997 5.37183L9.17559 6.15486V0.736889C8.58962 1.05391 8.06922 1.47589 7.6462 1.97365V6.4682L6.1168 6.78143V0C5.53084 0.316908 5.01044 0.739006 4.58741 1.23677V7.09455L1.16539 7.79522C0.933411 8.29075 0.779951 8.82874 0.721088 9.3928L4.58741 8.60109V10.4983L0.44389 11.3467C0.211908 11.8423 0.058564 12.3802 -0.000183105 12.9443L4.33693 12.0562C4.68999 11.9854 4.99344 11.7843 5.19073 11.5075L5.98613 10.3713V10.371C6.0687 10.2535 6.1168 10.1117 6.1168 9.95909V8.28786L7.6462 7.97462V10.9877L12.5556 9.98171L12.5557 9.98193Z" fill="#231F20"/>
</g>
<defs>
<clipPath id="clip0_1_570">
<rect width="13" height="14" fill="white"/>
</clipPath>
</defs>
</svg>
