<svg width="20" height="22" viewBox="0 0 20 22" fill="none" xmlns="http://www.w3.org/2000/svg">
<g clip-path="url(#clip0_1_496)">
<path d="M12.4472 19.4895C12.0903 20.2684 11.8544 21.1136 11.764 22L19.3167 20.4198C19.6736 19.6412 19.9093 18.7957 19.9998 17.9094L12.4472 19.4895Z" fill="black"/>
<path d="M19.3166 15.6859C19.6735 14.9072 19.9094 14.0618 19.9998 13.1754L14.1166 14.4069V12.0395L19.3164 10.9519C19.6733 10.1732 19.9093 9.32784 19.9996 8.44145L14.1164 9.67192V1.15797C13.2149 1.65614 12.4143 2.31926 11.7635 3.10146V10.1643L9.41057 10.6565V0C8.50908 0.497998 7.70847 1.1613 7.05766 1.94349V11.1486L1.79301 12.2496C1.43611 13.0283 1.20002 13.8737 1.10947 14.7601L7.05766 13.516V16.4973L0.683006 17.8306C0.326111 18.6093 0.0901971 19.4547 -0.000183105 20.3411L6.6723 18.9455C7.21547 18.8343 7.68231 18.5182 7.98583 18.0833L9.20952 16.2977V16.2974C9.33655 16.1126 9.41057 15.8899 9.41057 15.65V13.0238L11.7635 12.5316V17.2664L19.3164 15.6855L19.3166 15.6859Z" fill="black"/>
</g>
<defs>
<clipPath id="clip0_1_496">
<rect width="20" height="22" fill="white"/>
</clipPath>
</defs>
</svg>
